<svg xmlns="http://www.w3.org/2000/svg" version="1.1" xmlns:xlink="http://www.w3.org/1999/xlink" xmlns:svgjs="http://svgjs.com/svgjs" width="1440" height="560" preserveAspectRatio="none" viewBox="0 0 1440 560"><g mask="url(&quot;#SvgjsMask1024&quot;)" fill="none"><rect width="1440" height="560" x="0" y="0" fill="rgba(5, 51, 99, 1)"></rect><path d="M93.006,215.515C137.331,217.445,181.447,195.25,201.948,155.904C221.254,118.851,206.427,75.738,184.302,40.296C163.746,7.367,131.792,-17.029,93.006,-18.613C51.291,-20.317,8.351,-4.076,-12.194,32.269C-32.481,68.158,-21.183,111.329,-0.657,147.082C19.976,183.022,51.603,213.712,93.006,215.515" fill="rgba(2, 35, 55, 0.4)" class="triangle-float3"></path><path d="M-56.16 -18.5 a37.66 37.66 0 1 0 75.32 0 a37.66 37.66 0 1 0 -75.32 0z" fill="rgba(2, 35, 55, 0.4)" class="triangle-float1"></path><path d="M10.759,47.957C24.84,47.905,39.194,43.431,46.531,31.412C54.146,18.939,53.454,2.979,45.827,-9.487C38.514,-21.44,24.758,-27.681,10.759,-27.059C-2.219,-26.483,-12.479,-17.651,-19.3,-6.595C-26.572,5.193,-32.161,19.549,-25.477,31.68C-18.628,44.11,-3.433,48.01,10.759,47.957" fill="rgba(2, 35, 55, 0.4)" class="triangle-float2"></path><path d="M1376.432,126.758C1404.388,127.709,1429.618,111.429,1444.208,87.563C1459.505,62.54,1466.13,30.481,1450.432,5.708C1435.489,-17.873,1404.346,-19.815,1376.432,-19.392C1349.521,-18.985,1319.84,-15.318,1306.214,7.892C1292.472,31.299,1302.393,59.838,1316.198,83.208C1329.704,106.072,1349.892,125.855,1376.432,126.758" fill="rgba(2, 35, 55, 0.4)" class="triangle-float2"></path><path d="M1374.001,115.772C1397.776,114.308,1415.872,97.657,1428.624,77.538C1442.658,55.396,1456.966,28.372,1443.743,5.736C1430.58,-16.796,1400.095,-16.188,1374.001,-15.964C1348.472,-15.745,1320.511,-14.295,1306.305,6.917C1290.769,30.115,1291.594,61.357,1306.339,85.066C1320.358,107.608,1347.505,117.403,1374.001,115.772" fill="rgba(2, 35, 55, 0.4)" class="triangle-float3"></path><path d="M1261.95 -8.61 a57.44 57.44 0 1 0 114.88 0 a57.44 57.44 0 1 0 -114.88 0z" fill="rgba(2, 35, 55, 0.4)" class="triangle-float1"></path><path d="M51.973,573.95C77.609,573.681,99.992,557.28,111.998,534.628C123.268,513.363,120.173,488.384,108.467,467.356C96.382,445.648,76.803,427.663,51.973,426.805C25.782,425.9,1.274,440.441,-11.713,463.204C-24.589,485.771,-23.231,513.391,-10.279,535.914C2.714,558.508,25.911,574.224,51.973,573.95" fill="rgba(2, 35, 55, 0.4)" class="triangle-float1"></path><path d="M64.629,599.227C94.869,598.373,121.612,580.453,136.176,553.937C150.201,528.403,148.77,497.689,134.28,472.416C119.709,447.002,93.891,430.527,64.629,429.145C32.636,427.634,-0.719,437.929,-17.428,465.254C-34.758,493.595,-31.626,529.855,-14.275,558.184C2.321,585.28,32.867,600.124,64.629,599.227" fill="rgba(2, 35, 55, 0.4)" class="triangle-float3"></path><path d="M123.059,685.8C168.23,687.854,214.99,676.185,240.631,638.94C269.845,596.504,278.128,540.974,254.159,495.369C228.621,446.777,177.946,414.345,123.059,415.237C69.526,416.107,21.9,451.053,-0.859,499.515C-20.849,542.081,-3.388,589.872,22.658,629.026C45.481,663.336,81.894,683.928,123.059,685.8" fill="rgba(2, 35, 55, 0.4)" class="triangle-float3"></path><path d="M1355.264,528.358C1375.452,529.357,1396.336,522.312,1406.804,505.021C1417.595,487.196,1414.957,464.86,1404.675,446.737C1394.243,428.349,1376.399,413.687,1355.264,414.178C1334.788,414.654,1318.895,430.654,1309.679,448.946C1301.413,465.353,1302.716,484.389,1311.862,500.322C1321.052,516.332,1336.827,527.446,1355.264,528.358" fill="rgba(2, 35, 55, 0.4)" class="triangle-float2"></path><path d="M1430.437,674.764C1472.626,673.608,1506.975,643.308,1526.365,605.821C1544.158,571.421,1541.096,531.266,1522.129,497.499C1502.718,462.94,1469.978,437.795,1430.437,435.037C1385.414,431.897,1336.723,444.224,1313.551,482.953C1289.908,522.469,1300.988,572.016,1324.951,611.339C1347.834,648.89,1386.479,675.968,1430.437,674.764" fill="rgba(2, 35, 55, 0.4)" class="triangle-float1"></path><path d="M1389.145,601.627C1420.944,600.757,1447.664,579.651,1462.881,551.716C1477.408,525.048,1476.722,493.618,1462.634,466.716C1447.34,437.511,1422.072,409.291,1389.145,410.913C1357.754,412.46,1342.547,445.954,1327.212,473.388C1312.438,499.818,1294.906,528.685,1308.074,555.951C1322.531,585.887,1355.913,602.536,1389.145,601.627" fill="rgba(2, 35, 55, 0.4)" class="triangle-float1"></path></g><defs><mask id="SvgjsMask1024"><rect width="1440" height="560" fill="#ffffff"></rect></mask><style>
            @keyframes float1 {
                0%{transform: translate(0, 0)}
                50%{transform: translate(-10px, 0)}
                100%{transform: translate(0, 0)}
            }

            .triangle-float1 {
                animation: float1 5s infinite;
            }

            @keyframes float2 {
                0%{transform: translate(0, 0)}
                50%{transform: translate(-5px, -5px)}
                100%{transform: translate(0, 0)}
            }

            .triangle-float2 {
                animation: float2 4s infinite;
            }

            @keyframes float3 {
                0%{transform: translate(0, 0)}
                50%{transform: translate(0, -10px)}
                100%{transform: translate(0, 0)}
            }

            .triangle-float3 {
                animation: float3 6s infinite;
            }
        </style></defs></svg>