<svg xmlns="http://www.w3.org/2000/svg" version="1.1" xmlns:xlink="http://www.w3.org/1999/xlink" xmlns:svgjs="http://svgjs.com/svgjs" width="1440" height="560" preserveAspectRatio="none" viewBox="0 0 1440 560"><g mask="url(&quot;#SvgjsMask1048&quot;)" fill="none"><rect width="1440" height="560" x="0" y="0" fill="rgba(5, 51, 99, 1)"></rect><path d="M-46.42 -28.24 a18.18 18.18 0 1 0 36.36 0 a18.18 18.18 0 1 0 -36.36 0z" fill="rgba(3, 24, 61, 0.4)" class="triangle-float1"></path><path d="M111.78276456295566-63.62652465041386L-46.085595729076914-6.167140571701502 11.373788349635447 151.70121972033107 169.24214864166802 94.2418356416187z" fill="rgba(3, 24, 61, 0.4)" class="triangle-float3"></path><path d="M-42.99 -31.68 a11.31 11.31 0 1 0 22.62 0 a11.31 11.31 0 1 0 -22.62 0z" fill="rgba(3, 24, 61, 0.4)" class="triangle-float2"></path><path d="M1200.52 52.81 a180.29 180.29 0 1 0 360.58 0 a180.29 180.29 0 1 0 -360.58 0z" fill="rgba(3, 24, 61, 0.4)" class="triangle-float1"></path><path d="M1480.5337635473488-34.019190829548876L1312.6361046081406-39.882306275569 1306.7729891621207 128.0153526636391 1474.6706481013287 133.87846810965922z" fill="rgba(3, 24, 61, 0.4)" class="triangle-float2"></path><path d="M1515.6717368599059 65.20738478167806L1405.4538199895007-61.58382469574764 1278.662610512075 48.63409217465758 1388.88052738248 175.42530165208328z" fill="rgba(3, 24, 61, 0.4)" class="triangle-float3"></path><path d="M-81.18 454.52 a87.7 87.7 0 1 0 175.4 0 a87.7 87.7 0 1 0 -175.4 0z" fill="rgba(3, 24, 61, 0.4)" class="triangle-float3"></path><path d="M-80.69 454.03 a86.72 86.72 0 1 0 173.44 0 a86.72 86.72 0 1 0 -173.44 0z" fill="rgba(3, 24, 61, 0.4)" class="triangle-float2"></path><path d="M-32.32073399441876 602.0901124931017L135.44902784434964 593.2976718442872 126.656587195535 425.5279100055187-41.11317464323341 434.3203506543333z" fill="rgba(3, 24, 61, 0.4)" class="triangle-float1"></path><path d="M1397.7970532379989 635.2701929006355L1503.5228789343716 504.7096713758644 1372.9623574096004 398.98384567949165 1267.2365317132278 529.5443672042628z" fill="rgba(3, 24, 61, 0.4)" class="triangle-float3"></path><path d="M1237.23 464.09 a106.86 106.86 0 1 0 213.72 0 a106.86 106.86 0 1 0 -213.72 0z" fill="rgba(3, 24, 61, 0.4)" class="triangle-float3"></path><path d="M1233.82 467.52 a113.7 113.7 0 1 0 227.4 0 a113.7 113.7 0 1 0 -227.4 0z" fill="rgba(3, 24, 61, 0.4)" class="triangle-float2"></path></g><defs><mask id="SvgjsMask1048"><rect width="1440" height="560" fill="#ffffff"></rect></mask><style>
            @keyframes float1 {
                0%{transform: translate(0, 0)}
                50%{transform: translate(-10px, 0)}
                100%{transform: translate(0, 0)}
            }

            .triangle-float1 {
                animation: float1 5s infinite;
            }

            @keyframes float2 {
                0%{transform: translate(0, 0)}
                50%{transform: translate(-5px, -5px)}
                100%{transform: translate(0, 0)}
            }

            .triangle-float2 {
                animation: float2 4s infinite;
            }

            @keyframes float3 {
                0%{transform: translate(0, 0)}
                50%{transform: translate(0, -10px)}
                100%{transform: translate(0, 0)}
            }

            .triangle-float3 {
                animation: float3 6s infinite;
            }
        </style></defs></svg>